<svg width="281" height="194" viewBox="0 0 281 194" fill="none" xmlns="http://www.w3.org/2000/svg">
<rect width="281" height="194" rx="19" fill="#25A7D0"/>
<path fill-rule="evenodd" clip-rule="evenodd" d="M162.5 72V122H209.5L223.5 106.5L237.5 122H254.5L232.5 96L254.5 72H237.5L223.5 86L210.5 72H162.5ZM175.5 92V83.5V82.5H202L215.5 96L202 110.5H175.5V101.5H202V92H175.5Z" fill="#F5FCFC"/>
<path fill-rule="evenodd" clip-rule="evenodd" d="M28 122L50 72H67L87.5 117.5V72H107L122 104.5L136 72H156V122H143.5V87.5L128 122H115.5L100 85.5V122H75.5L70.5 110.5H46.5L42 122H28ZM51.5 99.5L58.5 84.5L64.5 99.5H51.5Z" fill="#F5FCFC"/>
</svg>
