<svg width="281" height="194" viewBox="0 0 281 194" fill="none" xmlns="http://www.w3.org/2000/svg">
<rect width="281" height="194" rx="19" fill="#152469"/>
<path d="M34 97C34 130.689 61.3106 158 95 158C113.631 158 130.311 149.648 141.5 136.483C137.969 133.363 136.44 131.258 134 127.22H148C150.19 123.388 151.976 119.295 153.301 115H128.5C126.56 110.149 126.034 107.546 125.5 103H155.709C156.698 98.4766 156.59 95.8212 155.709 91H125.5C125.5 86 127 82.5 128.5 79H153.301C152.002 74.787 150.258 70.7688 148.125 67H133C135.873 62.4652 137.162 60.597 141 56.9362C129.817 44.1072 113.355 36 95 36C61.3106 36 34 63.3106 34 97Z" fill="#FE000D"/>
<path d="M186 158C219.689 158 247 130.689 247 97C247 63.3106 219.689 36 186 36C163.216 36 143.349 48.4917 132.875 67H147.5C151.12 71.672 151.809 74.3008 153 79H127.699C126.512 82.8511 125.695 86.8651 125.291 91H155.5C156.625 95.7052 156.66 98.2972 155.5 103H125.291C125.695 107.135 126.512 111.149 127.699 115H153C151.441 120.136 150.366 122.868 147.5 127H132.875C143.349 145.508 163.216 158 186 158Z" fill="#FCA41C"/>
</svg>
