<svg width="281" height="194" viewBox="0 0 281 194" fill="none" xmlns="http://www.w3.org/2000/svg">
<rect width="281" height="194" rx="19" fill="#FEFEFE"/>
<path d="M0 153H281V175C281 185.493 272.493 194 262 194H19C8.50658 194 0 185.493 0 175V153Z" fill="#F3A32A"/>
<path d="M0 41H281V19C281 8.50659 272.493 0 262 0H19C8.50658 0 0 8.50659 0 19V41Z" fill="#065496"/>
<path d="M71 109.005L70.1118 105.052C66.6876 92.6232 57.7031 82.0985 45.0021 74.0046L60 130.505H79.5L107.5 64.5046H89L71 109.005Z" fill="#02509A"/>
<path d="M61 64.5046H25.5C32.656 67.1334 39.2149 70.3166 45.0021 74.0046C57.7031 82.0985 66.6876 92.6232 70.1118 105.052L61 64.5046Z" fill="#F6A12A"/>
<path d="M116 64.5046H132.5L122 130.505H104.5L116 64.5046Z" fill="#02509A"/>
<path d="M185 80.0046L187.5 66.5046C182.5 63.5052 145.001 56.5061 141.5 84.0046C139.5 99.7121 167 104 167 111.506C167 118 149 120.5 136.5 113.5L133.5 127C161.5 137.5 185 127 185 110C185 91 159.5 92.5 159.5 82.5C159.5 76 174.5 74.5 185 80.0046Z" fill="#02509A"/>
<path fill-rule="evenodd" clip-rule="evenodd" d="M183.5 130.505H203.5L207 120.5H230L232.5 130.505H248.5L234.5 64.5H218C214.5 64.5 212.5 67 211.5 70L183.5 130.505ZM211 107.5L221.5 82.5L227.5 107.5H211Z" fill="#02509A"/>
</svg>
